<?xml version="1.0" standalone="no"?><!DOCTYPE svg PUBLIC "-//W3C//DTD SVG 1.1//EN" "http://www.w3.org/Graphics/SVG/1.1/DTD/svg11.dtd"><svg t="1552807520778" class="icon" style="" viewBox="0 0 1024 1024" version="1.1" xmlns="http://www.w3.org/2000/svg" p-id="2528" xmlns:xlink="http://www.w3.org/1999/xlink" width="200" height="200"><defs><style type="text/css"></style></defs><path d="M832 512a32 32 0 0 0-32 32c0 158.784-129.216 288-288 288s-288-129.216-288-288 129.216-288 288-288c66.208 0 129.536 22.752 180.608 64H608a32 32 0 0 0 0 64h160a32 32 0 0 0 32-32V192a32 32 0 0 0-64 0v80.96A350.464 350.464 0 0 0 512 192C317.92 192 160 349.92 160 544s157.92 352 352 352 352-157.92 352-352a32 32 0 0 0-32-32" p-id="2529" fill="#2c2c2c"></path></svg>
